<?xml version="1.0" encoding="UTF-8" standalone="no"?>
<svg
   xmlns:dc="http://purl.org/dc/elements/1.1/"
   xmlns:cc="http://creativecommons.org/ns#"
   xmlns:rdf="http://www.w3.org/1999/02/22-rdf-syntax-ns#"
   xmlns:svg="http://www.w3.org/2000/svg"
   xmlns="http://www.w3.org/2000/svg"
   xmlns:sodipodi="http://sodipodi.sourceforge.net/DTD/sodipodi-0.dtd"
   xmlns:inkscape="http://www.inkscape.org/namespaces/inkscape"
   inkscape:version="1.0 (4035a4fb49, 2020-05-01)"
   sodipodi:docname="logo.svg"
   id="svg932"
   viewBox="0 0 655.15 259.95"
   version="1.2"
   height="259.95pt"
   width="655.15pt">
  <metadata
     id="metadata938">
    <rdf:RDF>
      <cc:Work
         rdf:about="">
        <dc:format>image/svg+xml</dc:format>
        <dc:type
           rdf:resource="http://purl.org/dc/dcmitype/StillImage" />
        <dc:title></dc:title>
      </cc:Work>
    </rdf:RDF>
  </metadata>
  <defs
     id="defs936" />
  <sodipodi:namedview
     inkscape:current-layer="g930"
     inkscape:window-maximized="1"
     inkscape:window-y="-6"
     inkscape:window-x="-6"
     inkscape:cy="173.30001"
     inkscape:cx="436.76668"
     inkscape:zoom="0.84026556"
     showgrid="false"
     id="namedview934"
     inkscape:window-height="1010"
     inkscape:window-width="1620"
     inkscape:pageshadow="2"
     inkscape:pageopacity="0"
     guidetolerance="10"
     gridtolerance="10"
     objecttolerance="10"
     borderopacity="1"
     bordercolor="#666666"
     pagecolor="#ffffff" />
  <g
     id="g930">
    <path
       id="path920"
       fill="#f5cac3"
       d="m333.94 40-27.73 76.166v190.43l17.381-46.49h90.6l16.27 46.49h70.078l-95.041-266.6h-71.557zm35.316 82.412 27.178 84.963h-54.719l27.541-84.963z"
       transform="scale(.75)" />
    <path
       id="path922"
       fill="#f5cac3"
       d="m40 40v266.6h69.334v-163.28l127.55 163.28 69.332-190.43v-76.166h-69.332v163.08l-127.55-163.08h-69.334z"
       transform="scale(.75)" />
    <path
       style="fill:#c54669;fill-opacity:1"
       id="path924"
       fill="#f28482"
       d="m500.2 30-72.797 103.85v96.098h-52v-96.098l-71.281-103.85h61.023l37.801 54.488 36.328-54.488z" />
    <path
       id="path926"
       fill="#f5cac3"
       d="m625.15 229.95h-52.558l-12.203-34.867h-67.949l-13.035 34.867h-52l72.797-199.95h53.668zm-78.078-74.418-20.383-63.723-20.657 63.723z" />
    <path
       style="fill:#c54669;fill-opacity:1"
       id="path928"
       fill="#f28482"
       d="m306.21 116.17-69.332 190.43h69.332v-190.43z"
       transform="scale(.75)" />
  </g>
</svg>
