<?xml version="1.0" encoding="UTF-8" standalone="no"?>
<svg
   xmlns:dc="http://purl.org/dc/elements/1.1/"
   xmlns:cc="http://creativecommons.org/ns#"
   xmlns:rdf="http://www.w3.org/1999/02/22-rdf-syntax-ns#"
   xmlns:svg="http://www.w3.org/2000/svg"
   xmlns="http://www.w3.org/2000/svg"
   xmlns:sodipodi="http://sodipodi.sourceforge.net/DTD/sodipodi-0.dtd"
   xmlns:inkscape="http://www.inkscape.org/namespaces/inkscape"
   inkscape:version="1.0 (4035a4fb49, 2020-05-01)"
   sodipodi:docname="square_logo.svg"
   id="svg932"
   viewBox="0 0 654.99998 654.99997"
   version="1.2"
   height="655pt"
   width="655pt">
  <metadata
     id="metadata938">
    <rdf:RDF>
      <cc:Work
         rdf:about="">
        <dc:format>image/svg+xml</dc:format>
        <dc:type
           rdf:resource="http://purl.org/dc/dcmitype/StillImage" />
        <dc:title></dc:title>
      </cc:Work>
    </rdf:RDF>
  </metadata>
  <defs
     id="defs936" />
  <sodipodi:namedview
     inkscape:current-layer="g930"
     inkscape:window-maximized="1"
     inkscape:window-y="-6"
     inkscape:window-x="-6"
     inkscape:cy="371.74733"
     inkscape:cx="5.7601794"
     inkscape:zoom="0.42013278"
     showgrid="false"
     id="namedview934"
     inkscape:window-height="1010"
     inkscape:window-width="1620"
     inkscape:pageshadow="2"
     inkscape:pageopacity="0"
     guidetolerance="10"
     gridtolerance="10"
     objecttolerance="10"
     borderopacity="1"
     bordercolor="#666666"
     pagecolor="#ffffff" />
  <g
     id="g930">
    <path
       style="stroke-width:0.75"
       id="path920"
       fill="#f5cac3"
       d="m 252.24015,231.72194 -20.7975,57.1245 v 142.8225 l 13.03575,-34.8675 h 67.95 l 12.2025,34.8675 h 52.5585 l -71.28075,-199.95 H 252.2409 Z m 26.487,61.809 20.3835,63.72225 H 258.0714 Z" />
    <path
       style="stroke-width:0.75"
       id="path922"
       fill="#f5cac3"
       d="m 31.78515,231.72194 v 199.95 h 52.0005 v -122.46 l 95.6625,122.46 51.999,-142.8225 v -57.1245 h -51.999 v 122.31 l -95.6625,-122.31 h -52.0005 z" />
    <path
       style="fill:#c54669;fill-opacity:1"
       id="path924"
       fill="#f28482"
       d="m 501.98515,231.72194 -72.797,103.85 v 96.098 h -52 v -96.098 l -71.281,-103.85 h 61.023 l 37.801,54.488 36.328,-54.488 z" />
    <path
       id="path926"
       fill="#f5cac3"
       d="m 626.93515,431.67194 h -52.558 l -12.203,-34.867 h -67.949 l -13.035,34.867 h -52 l 72.797,-199.95 h 53.668 z m -78.078,-74.418 -20.383,-63.723 -20.657,63.723 z" />
    <path
       style="fill:#c54669;fill-opacity:1;stroke-width:0.75"
       id="path928"
       fill="#f28482"
       d="m 231.44265,288.84944 -51.999,142.8225 h 51.999 z" />
  </g>
</svg>
